<svg width="25" height="26" fill="none" xmlns="http://www.w3.org/2000/svg"><path fill-rule="evenodd" clip-rule="evenodd" d="M11.667 3.635c-4.434 0-8.028 3.669-8.028 8.194 0 4.526 3.594 8.194 8.028 8.194 4.434 0 8.028-3.668 8.028-8.194 0-4.525-3.594-8.194-8.028-8.194zM1.346 11.83c0-5.818 4.62-10.535 10.321-10.535 5.7 0 10.321 4.717 10.321 10.535 0 5.819-4.62 10.536-10.321 10.536-5.7 0-10.321-4.717-10.321-10.536z" fill="#000" stroke="#000" stroke-linecap="round" stroke-linejoin="round"/><path fill-rule="evenodd" clip-rule="evenodd" d="M17.336 17.615a1.13 1.13 0 011.622 0l4.988 5.092a1.188 1.188 0 010 1.656 1.13 1.13 0 01-1.622 0l-4.988-5.092a1.188 1.188 0 010-1.656z" fill="#000" stroke="#000" stroke-linecap="round" stroke-linejoin="round"/></svg>